<?xml version="1.0" encoding="UTF-8"?>
<!DOCTYPE svg PUBLIC "-//W3C//DTD SVG 1.1//EN" "http://www.w3.org/Graphics/SVG/1.1/DTD/svg11.dtd">
<svg version="1.2" width="45mm" height="45mm" viewBox="0 0 4500 4500" preserveAspectRatio="xMidYMid" fill-rule="evenodd" stroke-width="28.222" stroke-linejoin="round" xmlns="http://www.w3.org/2000/svg" xmlns:ooo="http://xml.openoffice.org/svg/export" xmlns:xlink="http://www.w3.org/1999/xlink" xmlns:presentation="http://sun.com/xmlns/staroffice/presentation" xmlns:smil="http://www.w3.org/2001/SMIL20/" xmlns:anim="urn:oasis:names:tc:opendocument:xmlns:animation:1.0" xml:space="preserve">
 <defs class="ClipPathGroup">
  <clipPath id="presentation_clip_path" clipPathUnits="userSpaceOnUse">
   <rect x="0" y="0" width="4500" height="4500"/>
  </clipPath>
  <clipPath id="presentation_clip_path_shrink" clipPathUnits="userSpaceOnUse">
   <rect x="4" y="4" width="4491" height="4491"/>
  </clipPath>
 </defs>
 <defs class="TextShapeIndex">
  <g ooo:slide="id1" ooo:id-list="id3 id4 id5 id6 id7 id8 id9 id10 id11 id12 id13"/>
 </defs>
 <defs class="EmbeddedBulletChars">
  <g id="bullet-char-template-57356" transform="scale(0.00048828125,-0.00048828125)">
   <path d="M 580,1141 L 1163,571 580,0 -4,571 580,1141 Z"/>
  </g>
  <g id="bullet-char-template-57354" transform="scale(0.00048828125,-0.00048828125)">
   <path d="M 8,1128 L 1137,1128 1137,0 8,0 8,1128 Z"/>
  </g>
  <g id="bullet-char-template-10146" transform="scale(0.00048828125,-0.00048828125)">
   <path d="M 174,0 L 602,739 174,1481 1456,739 174,0 Z M 1358,739 L 309,1346 659,739 1358,739 Z"/>
  </g>
  <g id="bullet-char-template-10132" transform="scale(0.00048828125,-0.00048828125)">
   <path d="M 2015,739 L 1276,0 717,0 1260,543 174,543 174,936 1260,936 717,1481 1274,1481 2015,739 Z"/>
  </g>
  <g id="bullet-char-template-10007" transform="scale(0.00048828125,-0.00048828125)">
   <path d="M 0,-2 C -7,14 -16,27 -25,37 L 356,567 C 262,823 215,952 215,954 215,979 228,992 255,992 264,992 276,990 289,987 310,991 331,999 354,1012 L 381,999 492,748 772,1049 836,1024 860,1049 C 881,1039 901,1025 922,1006 886,937 835,863 770,784 769,783 710,716 594,584 L 774,223 C 774,196 753,168 711,139 L 727,119 C 717,90 699,76 672,76 641,76 570,178 457,381 L 164,-76 C 142,-110 111,-127 72,-127 30,-127 9,-110 8,-76 1,-67 -2,-52 -2,-32 -2,-23 -1,-13 0,-2 Z"/>
  </g>
  <g id="bullet-char-template-10004" transform="scale(0.00048828125,-0.00048828125)">
   <path d="M 285,-33 C 182,-33 111,30 74,156 52,228 41,333 41,471 41,549 55,616 82,672 116,743 169,778 240,778 293,778 328,747 346,684 L 369,508 C 377,444 397,411 428,410 L 1163,1116 C 1174,1127 1196,1133 1229,1133 1271,1133 1292,1118 1292,1087 L 1292,965 C 1292,929 1282,901 1262,881 L 442,47 C 390,-6 338,-33 285,-33 Z"/>
  </g>
  <g id="bullet-char-template-9679" transform="scale(0.00048828125,-0.00048828125)">
   <path d="M 813,0 C 632,0 489,54 383,161 276,268 223,411 223,592 223,773 276,916 383,1023 489,1130 632,1184 813,1184 992,1184 1136,1130 1245,1023 1353,916 1407,772 1407,592 1407,412 1353,268 1245,161 1136,54 992,0 813,0 Z"/>
  </g>
  <g id="bullet-char-template-8226" transform="scale(0.00048828125,-0.00048828125)">
   <path d="M 346,457 C 273,457 209,483 155,535 101,586 74,649 74,723 74,796 101,859 155,911 209,963 273,989 346,989 419,989 480,963 531,910 582,859 608,796 608,723 608,648 583,586 532,535 482,483 420,457 346,457 Z"/>
  </g>
  <g id="bullet-char-template-8211" transform="scale(0.00048828125,-0.00048828125)">
   <path d="M -4,459 L 1135,459 1135,606 -4,606 -4,459 Z"/>
  </g>
  <g id="bullet-char-template-61548" transform="scale(0.00048828125,-0.00048828125)">
   <path d="M 173,740 C 173,903 231,1043 346,1159 462,1274 601,1332 765,1332 928,1332 1067,1274 1183,1159 1299,1043 1357,903 1357,740 1357,577 1299,437 1183,322 1067,206 928,148 765,148 601,148 462,206 346,322 231,437 173,577 173,740 Z"/>
  </g>
 </defs>
 <g>
  <g id="id2" class="Master_Slide">
   <g id="bg-id2" class="Background"/>
   <g id="bo-id2" class="BackgroundObjects"/>
  </g>
 </g>
 <g class="SlideGroup">
  <g>
   <g id="container-id1">
    <g id="id1" class="Slide" clip-path="url(#presentation_clip_path)">
     <g class="Page">
      <g class="com.sun.star.drawing.PolyPolygonShape">
       <g id="id3">
        <rect class="BoundingBox" stroke="none" fill="none" x="143" y="895" width="4201" height="3088"/>
        <path fill="rgb(255,255,255)" stroke="none" d="M 295,3530 L 175,3344 144,3151 349,2808 193,2676 150,2496 168,2369 343,2153 181,1943 168,1636 313,1486 4288,896 4077,1257 4173,1473 4342,1618 4095,1822 4143,2087 4318,2267 4161,2460 4089,2694 4288,2935 2526,3981 295,3530 Z"/>
        <path fill="none" stroke="rgb(52,101,164)" d="M 295,3530 L 175,3344 144,3151 349,2808 193,2676 150,2496 168,2369 343,2153 181,1943 168,1636 313,1486 4288,896 4077,1257 4173,1473 4342,1618 4095,1822 4143,2087 4318,2267 4161,2460 4089,2694 4288,2935 2526,3981 295,3530 Z"/>
       </g>
      </g>
      <g class="com.sun.star.drawing.ClosedBezierShape">
       <g id="id4">
        <rect class="BoundingBox" stroke="none" fill="none" x="4034" y="910" width="334" height="2082"/>
        <path fill="rgb(102,102,102)" stroke="none" d="M 4245,2986 C 4241,2984 4236,2983 4232,2981 4229,2979 4225,2977 4223,2974 4164,2911 4123,2852 4096,2795 4082,2767 4071,2738 4064,2709 4057,2681 4054,2654 4054,2626 4054,2592 4059,2556 4070,2522 4079,2490 4093,2456 4113,2422 4141,2368 4182,2313 4234,2256 4207,2236 4186,2217 4166,2197 4136,2167 4111,2136 4091,2106 4071,2076 4057,2044 4048,2013 4039,1981 4034,1951 4034,1920 4034,1879 4041,1842 4055,1806 4070,1770 4089,1737 4114,1706 4139,1676 4168,1649 4202,1626 4214,1615 4229,1606 4245,1597 4229,1585 4214,1572 4200,1560 4171,1529 4145,1499 4125,1465 4104,1433 4088,1397 4077,1362 4066,1326 4061,1288 4061,1251 4061,1222 4064,1192 4071,1163 4077,1133 4088,1105 4102,1076 4129,1019 4170,964 4225,910 L 4254,940 4282,971 C 4234,1015 4200,1064 4177,1112 4166,1135 4157,1158 4152,1181 4146,1205 4143,1228 4143,1251 4143,1281 4148,1310 4157,1338 4164,1367 4179,1396 4195,1422 4213,1449 4234,1476 4259,1499 4284,1524 4314,1549 4348,1570 4354,1574 4357,1578 4361,1585 4366,1590 4366,1597 4366,1604 4366,1612 4366,1619 4361,1626 4357,1631 4354,1637 4346,1640 4345,1642 4343,1642 4341,1644 4307,1656 4277,1674 4250,1694 4221,1712 4198,1735 4179,1758 4159,1783 4143,1808 4132,1835 4123,1861 4116,1890 4116,1920 4116,1942 4120,1965 4127,1988 4134,2013 4146,2038 4161,2061 4177,2088 4198,2113 4223,2138 4250,2165 4282,2190 4318,2215 4323,2218 4327,2224 4330,2229 4334,2235 4336,2242 4336,2249 4336,2258 4334,2263 4330,2270 4329,2274 4327,2276 4325,2277 4266,2343 4218,2404 4184,2463 4168,2490 4157,2518 4148,2545 4141,2572 4136,2599 4136,2626 4136,2647 4139,2668 4145,2690 4150,2713 4159,2736 4170,2759 4193,2806 4229,2856 4275,2908 4314,2936 4393,3009 4245,2986 Z"/>
       </g>
      </g>
      <g class="com.sun.star.drawing.PolyPolygonShape">
       <g id="id5">
        <rect class="BoundingBox" stroke="none" fill="none" x="1582" y="2066" width="331" height="749"/>
        <path fill="rgb(149,224,0)" stroke="none" d="M 1594,2722 L 1717,2620 1911,2813 1911,2119 1583,2067 1594,2722 Z"/>
        <path fill="none" stroke="rgb(0,0,0)" d="M 1594,2722 L 1717,2620 1911,2813 1911,2119 1583,2067 1594,2722 Z"/>
       </g>
      </g>
      <g class="com.sun.star.drawing.ClosedBezierShape">
       <g id="id6">
        <rect class="BoundingBox" stroke="none" fill="none" x="325" y="2207" width="3978" height="1051"/>
        <path fill="rgb(102,102,102)" stroke="none" d="M 325,2848 L 332,2807 341,2766 2465,3171 4263,2207 4283,2243 4302,2280 2490,3251 C 2485,3255 2478,3257 2471,3257 2469,3257 2467,3257 2464,3257 L 325,2848 Z"/>
       </g>
      </g>
      <g class="com.sun.star.drawing.ClosedBezierShape">
       <g id="id7">
        <rect class="BoundingBox" stroke="none" fill="none" x="348" y="1559" width="3978" height="1051"/>
        <path fill="rgb(102,102,102)" stroke="none" d="M 2028,2435 L 2488,2523 4286,1559 4306,1595 4325,1632 2513,2603 C 2508,2607 2501,2609 2494,2609 2492,2609 2490,2609 2487,2609 L 2028,2521 2028,2435 Z M 1539,2427 L 348,2200 355,2159 364,2118 1539,2343 1539,2427 Z"/>
       </g>
      </g>
      <g class="com.sun.star.drawing.ClosedBezierShape">
       <g id="id8">
        <rect class="BoundingBox" stroke="none" fill="none" x="2211" y="1854" width="334" height="2082"/>
        <path fill="rgb(102,102,102)" stroke="none" d="M 2422,3930 C 2418,3928 2413,3927 2409,3925 2406,3923 2402,3921 2400,3918 2341,3855 2300,3796 2273,3739 2259,3711 2248,3682 2241,3653 2234,3625 2231,3598 2231,3570 2231,3536 2236,3500 2247,3466 2256,3434 2270,3400 2290,3366 2318,3312 2359,3257 2411,3200 2384,3180 2363,3161 2343,3141 2313,3111 2288,3080 2268,3050 2248,3020 2234,2988 2225,2957 2216,2925 2211,2895 2211,2864 2211,2823 2218,2786 2232,2750 2247,2714 2266,2681 2291,2650 2316,2620 2345,2593 2379,2570 2391,2559 2406,2550 2422,2541 2406,2529 2391,2516 2377,2504 2348,2473 2322,2443 2302,2409 2281,2377 2265,2341 2254,2306 2243,2270 2238,2232 2238,2195 2238,2166 2241,2136 2248,2107 2254,2077 2265,2049 2279,2020 2306,1963 2347,1908 2402,1854 L 2431,1884 2459,1915 C 2411,1959 2377,2008 2354,2056 2343,2079 2334,2102 2329,2125 2323,2149 2320,2172 2320,2195 2320,2225 2325,2254 2334,2282 2341,2311 2356,2340 2372,2366 2390,2393 2411,2420 2436,2443 2461,2468 2491,2493 2525,2514 2531,2518 2534,2522 2538,2529 2543,2534 2543,2541 2543,2548 2543,2556 2543,2563 2538,2570 2534,2575 2531,2581 2523,2584 2522,2586 2520,2586 2518,2588 2484,2600 2454,2618 2427,2638 2398,2656 2375,2679 2356,2702 2336,2727 2320,2752 2309,2779 2300,2805 2293,2834 2293,2864 2293,2886 2297,2909 2304,2932 2311,2957 2323,2982 2338,3005 2354,3032 2375,3057 2400,3082 2427,3109 2459,3134 2495,3159 2500,3162 2504,3168 2507,3173 2511,3179 2513,3186 2513,3193 2513,3202 2511,3207 2507,3214 2506,3218 2504,3220 2502,3221 2443,3287 2395,3348 2361,3407 2345,3434 2334,3462 2325,3489 2318,3516 2313,3543 2313,3570 2313,3591 2316,3612 2322,3634 2327,3657 2336,3680 2347,3703 2370,3750 2406,3800 2452,3852 2491,3880 2570,3953 2422,3930 Z"/>
       </g>
      </g>
      <g class="Group">
       <g class="com.sun.star.drawing.PolyPolygonShape">
        <g id="id9">
         <rect class="BoundingBox" stroke="none" fill="none" x="313" y="550" width="4054" height="1343"/>
         <path fill="rgb(0,0,0)" stroke="none" d="M 2412,1892 L 4366,910 2269,551 314,1513 2412,1892 Z"/>
        </g>
       </g>
       <g class="com.sun.star.drawing.ClosedBezierShape">
        <g id="id10">
         <rect class="BoundingBox" stroke="none" fill="none" x="271" y="509" width="4137" height="1427"/>
         <path fill="rgb(0,0,0)" stroke="none" d="M 2410,1935 C 2408,1935 2406,1935 2402,1933 L 305,1554 C 300,1553 296,1553 292,1549 285,1545 280,1540 276,1535 273,1528 271,1520 271,1513 271,1506 273,1499 276,1492 280,1486 285,1481 292,1478 292,1478 292,1476 294,1476 L 2249,514 C 2254,512 2260,510 2267,510 2269,510 2272,510 2274,510 L 4371,869 C 4377,871 4380,871 4386,874 4393,878 4396,883 4400,888 4405,896 4407,903 4407,910 4407,917 4405,924 4400,931 4396,937 4393,942 4386,946 4384,946 4384,947 4384,947 L 2429,1929 C 2424,1933 2417,1935 2410,1935 Z M 4234,930 L 2274,594 444,1495 2404,1849 4234,930 Z"/>
        </g>
       </g>
      </g>
      <g class="Group">
       <g class="com.sun.star.drawing.PolyPolygonShape">
        <g id="id11">
         <rect class="BoundingBox" stroke="none" fill="none" x="970" y="765" width="2739" height="913"/>
         <path fill="rgb(149,224,0)" stroke="none" d="M 2387,1677 L 3708,1010 2291,765 970,1420 2387,1677 Z"/>
        </g>
       </g>
       <g class="com.sun.star.drawing.ClosedBezierShape">
        <g id="id12">
         <rect class="BoundingBox" stroke="none" fill="none" x="929" y="723" width="2823" height="998"/>
         <path fill="rgb(0,0,0)" stroke="none" d="M 2387,1720 C 2386,1720 2384,1720 2380,1718 L 963,1461 C 958,1459 954,1459 950,1456 943,1452 938,1447 934,1442 931,1434 929,1427 929,1420 929,1413 931,1406 934,1399 938,1393 943,1388 950,1384 950,1384 950,1383 952,1383 L 2273,728 C 2279,726 2284,724 2291,724 2295,724 2296,724 2298,724 L 3716,969 C 3721,970 3725,970 3730,974 3737,977 3741,983 3744,988 3750,995 3751,1002 3751,1010 3751,1017 3750,1024 3744,1031 3741,1036 3737,1042 3730,1045 3730,1045 3728,1045 3728,1047 L 2407,1715 C 2402,1718 2395,1720 2387,1720 Z M 3578,1029 L 2298,808 1100,1402 2382,1634 3578,1029 Z"/>
        </g>
       </g>
      </g>
      <g class="com.sun.star.drawing.ClosedBezierShape">
       <g id="id13">
        <rect class="BoundingBox" stroke="none" fill="none" x="94" y="1463" width="4201" height="2529"/>
        <path fill="rgb(0,0,0)" stroke="none" d="M 4253,2900 L 4273,2936 4294,2971 2534,3985 C 2527,3989 2520,3991 2513,3991 2511,3991 2507,3989 2506,3989 1772,3839 1038,3689 305,3539 301,3537 296,3536 292,3534 289,3532 285,3530 283,3527 224,3464 183,3405 156,3348 142,3320 131,3291 124,3262 117,3234 114,3207 114,3179 114,3145 119,3109 130,3075 139,3043 153,3009 173,2975 201,2921 242,2866 294,2809 267,2789 246,2770 226,2750 196,2720 171,2689 151,2659 131,2629 117,2597 108,2566 99,2534 94,2504 94,2473 94,2432 101,2395 115,2359 130,2323 149,2290 174,2259 199,2229 228,2202 262,2179 274,2168 289,2159 305,2150 289,2138 274,2125 260,2113 231,2082 205,2052 185,2018 164,1986 148,1950 137,1915 126,1879 121,1841 121,1804 121,1775 124,1745 131,1716 137,1686 148,1658 162,1629 189,1572 230,1517 285,1463 L 314,1493 342,1524 C 294,1568 260,1617 237,1665 226,1688 217,1711 212,1734 206,1758 203,1781 203,1804 203,1834 208,1863 217,1891 224,1920 239,1949 255,1975 273,2002 294,2029 319,2052 344,2077 374,2102 408,2123 414,2127 417,2131 421,2138 426,2143 426,2150 426,2157 426,2165 426,2172 421,2179 417,2184 414,2190 406,2193 405,2195 403,2195 401,2197 367,2209 337,2227 310,2247 281,2265 258,2288 239,2311 219,2336 203,2361 192,2388 183,2414 176,2443 176,2473 176,2495 180,2518 187,2541 194,2566 206,2591 221,2614 237,2641 258,2666 283,2691 310,2718 342,2743 378,2768 383,2771 387,2777 390,2782 394,2788 396,2795 396,2802 396,2811 394,2816 390,2823 389,2827 387,2829 385,2830 326,2896 278,2957 244,3016 228,3043 217,3071 208,3098 201,3125 196,3152 196,3179 196,3200 199,3221 205,3243 210,3266 219,3289 230,3312 253,3359 289,3409 335,3461 1058,3609 1783,3757 2506,3905 L 4253,2900 Z"/>
       </g>
      </g>
     </g>
    </g>
   </g>
  </g>
 </g>
</svg>